<svg xmlns="http://www.w3.org/2000/svg" xmlns:xlink="http://www.w3.org/1999/xlink" width="1151" zoomAndPan="magnify" viewBox="0 0 863.25 242.249991" height="323" preserveAspectRatio="xMidYMid meet" version="1.0"><defs><clipPath id="a88391d63f"><path d="M 0.957031 0 L 861.542969 0 L 861.542969 241.503906 L 0.957031 241.503906 Z M 0.957031 0 " clip-rule="nonzero"/></clipPath><clipPath id="9c7f7dceae"><path d="M 307 3.398438 L 644.945312 3.398438 L 644.945312 241.503906 L 307 241.503906 Z M 307 3.398438 " clip-rule="nonzero"/></clipPath><clipPath id="f458a9df7e"><path d="M 476.101562 0 L 861.542969 0 L 861.542969 241.503906 L 476.101562 241.503906 Z M 476.101562 0 " clip-rule="nonzero"/></clipPath><clipPath id="2a68070a01"><path d="M 0.957031 0 L 239 0 L 239 216 L 0.957031 216 Z M 0.957031 0 " clip-rule="nonzero"/></clipPath></defs><g clip-path="url(#a88391d63f)"><path fill="#ffffff" d="M 0.957031 0 L 861.542969 0 L 861.542969 241.503906 L 0.957031 241.503906 Z M 0.957031 0 " fill-opacity="1" fill-rule="nonzero"/><path fill="#38b6ff" d="M 0.957031 0 L 861.542969 0 L 861.542969 241.503906 L 0.957031 241.503906 Z M 0.957031 0 " fill-opacity="1" fill-rule="nonzero"/></g><g clip-path="url(#9c7f7dceae)"><path fill="#39a8e8" d="M 474.710938 157.929688 L 484.5625 153 L 494.046875 147.472656 L 503.8125 142.449219 L 513.546875 137.300781 L 523.878906 133.511719 L 534.179688 129.6875 L 544.761719 126.707031 L 555.558594 124.710938 L 566.300781 122.238281 L 577.304688 121.390625 L 588.21875 123.046875 L 599.089844 124.242188 L 609.613281 127.335938 L 619.574219 131.984375 L 628.0625 138.941406 L 636.046875 146.5625 L 640.367188 156.710938 L 644.285156 166.871094 L 645.152344 177.742188 L 644.035156 188.5625 L 641.238281 199.15625 L 635.570312 208.570312 L 628.78125 217.3125 L 619.675781 223.632812 L 609.613281 228.105469 L 599.097656 231.195312 L 588.3125 233.222656 L 577.324219 233.820312 L 566.292969 233.523438 L 555.386719 231.824219 L 544.847656 228.554688 L 534.304688 225.492188 L 523.828125 222.167969 L 513.605469 218.101562 L 503.609375 213.5 L 493.640625 208.816406 L 484.203125 203.128906 L 475.171875 196.824219 L 465.675781 191.289062 L 475.039062 197.101562 L 483.21875 204.582031 L 492.683594 210.285156 L 500.851562 217.675781 L 509.753906 224.203125 L 517.820312 231.722656 L 524.796875 240.273438 L 532.25 248.359375 L 538.664062 257.292969 L 545.007812 266.3125 L 549.363281 276.441406 L 552.476562 286.933594 L 555.144531 297.542969 L 554.632812 308.457031 L 552.292969 319.046875 L 547.699219 328.890625 L 540.800781 337.347656 L 531.921875 343.683594 L 522.179688 348.683594 L 511.410156 350.652344 L 500.496094 352.484375 L 489.484375 351.027344 L 479.289062 346.722656 L 469.824219 341.304688 L 460.703125 335.234375 L 452.828125 327.480469 L 446.894531 318.164062 L 441.46875 308.53125 L 437.613281 298.15625 L 435.648438 287.277344 L 434.382812 276.367188 L 432.40625 265.511719 L 432.257812 254.492188 L 433.367188 243.535156 L 434.105469 232.574219 L 435 221.601562 L 436.496094 210.683594 L 438.867188 199.921875 L 436.167969 210.757812 L 434.058594 221.773438 L 431.085938 232.582031 L 426.652344 242.882812 L 422.757812 253.390625 L 417.398438 263.234375 L 411.71875 272.867188 L 405.667969 282.316406 L 397.304688 289.8125 L 389.601562 298.039062 L 379.386719 302.753906 L 368.675781 305.546875 L 357.5625 307.328125 L 346.910156 303.6875 L 337.023438 298.804688 L 328.089844 292.269531 L 320.464844 284.15625 L 314.988281 274.472656 L 311.007812 264.148438 L 307.289062 253.515625 L 307.804688 242.273438 L 309.796875 231.296875 L 313.667969 220.789062 L 320.101562 211.617188 L 328.390625 204.179688 L 337.054688 197.222656 L 346.890625 191.996094 L 356.894531 186.9375 L 367.632812 183.691406 L 378.5 180.863281 L 389.71875 180.097656 L 400.753906 177.96875 L 411.980469 178.15625 L 423.152344 177.75 L 411.964844 177.492188 L 400.816406 176.691406 L 389.601562 176.296875 L 378.6875 173.679688 L 367.691406 171.628906 L 356.847656 168.742188 L 346.4375 164.507812 L 337.03125 158.359375 L 328.140625 151.652344 L 320.3125 143.746094 L 314.1875 134.472656 L 309.964844 124.191406 L 307.039062 113.328125 L 307.902344 102.097656 L 310.394531 91.203125 L 314.304688 80.71875 L 320.761719 71.605469 L 327.878906 63.050781 L 336.703125 56.234375 L 346.785156 51.53125 L 357.679688 49.707031 L 368.757812 49.378906 L 379.621094 52.164062 L 389.109375 58.152344 L 397.265625 65.707031 L 405.621094 73.199219 L 411.148438 82.988281 L 417.925781 91.976562 L 421.847656 102.511719 L 427.257812 112.378906 L 431.085938 122.921875 L 433.34375 133.949219 L 437.101562 144.511719 L 438.867188 155.589844 L 436.707031 144.78125 L 434.519531 133.976562 L 434.109375 122.929688 L 433.015625 112 L 432.019531 101.019531 L 433.28125 90.050781 L 433.761719 79.078125 L 435.09375 68.132812 L 438.886719 57.765625 L 442.277344 47.351562 L 446.578125 37.1875 L 453.003906 28.199219 L 460.347656 19.921875 L 469.105469 13.117188 L 479.355469 8.992188 L 489.652344 5.339844 L 500.488281 3.398438 L 511.484375 4.207031 L 522.390625 6.148438 L 531.796875 11.988281 L 541.085938 17.828125 L 547.808594 26.519531 L 552.570312 36.34375 L 555.945312 46.886719 L 554.984375 57.917969 L 552.476562 68.550781 L 549.996094 79.3125 L 544.105469 88.660156 L 538.382812 97.992188 L 532.015625 106.9375 L 524.761719 115.1875 L 517.234375 123.191406 L 509.507812 131.03125 L 501.398438 138.496094 L 492.335938 144.789062 L 483.871094 151.839844 L 474.527344 157.6875 L 465.421875 163.84375 Z M 474.710938 157.929688 " fill-opacity="1" fill-rule="nonzero"/></g><g clip-path="url(#f458a9df7e)"><path fill="#fcde57" d="M 702.65625 -118.339844 L 710.820312 -92.425781 L 715.25 -65.160156 L 723.0625 -38.765625 L 730.359375 -12.234375 L 736.964844 13.941406 L 758.21875 -2.710938 L 779.632812 -19.988281 L 801.179688 -37.109375 L 821.304688 -55.941406 L 843.0625 -73.742188 L 832.753906 -47.597656 L 823.703125 -21.59375 L 813.074219 3.792969 L 802.886719 29.351562 L 791.378906 55.035156 L 819.351562 51.84375 L 846.851562 50.875 L 874.375 50.117188 L 901.765625 47.363281 L 929.359375 45.84375 L 906.417969 61.273438 L 882.988281 75.691406 L 859.078125 89.363281 L 835.9375 104.253906 L 813.53125 119.5 L 836.246094 134.25 L 859.617188 148.757812 L 883.40625 162.621094 L 906.558594 177.488281 L 929.519531 193.207031 L 901.726562 192.027344 L 874.226562 191 L 846.933594 186.75 L 819.460938 185.203125 L 791.011719 183.695312 L 802.886719 209.632812 L 812.453125 235.425781 L 822.59375 261.003906 L 831.804688 286.949219 L 842.652344 312.207031 L 822.292969 293.726562 L 799.453125 278.175781 L 778.257812 260.632812 L 757.25 242.863281 L 736.953125 225.089844 L 729.058594 250.90625 L 723.5 277.878906 L 717.445312 304.730469 L 709.511719 331.105469 L 702.644531 357.441406 L 696.378906 330.957031 L 687.976562 304.710938 L 681.332031 278.019531 L 674.625 251.332031 L 668.539062 224.488281 L 647.921875 242.730469 L 625.359375 258.617188 L 604.152344 276.152344 L 583.257812 294.0625 L 562.039062 313.035156 L 573.027344 286.800781 L 583.65625 261.421875 L 592.027344 235.148438 L 603.902344 210.261719 L 612.722656 184.851562 L 585.941406 186.867188 L 558.390625 187.046875 L 530.9375 188.933594 L 503.542969 191.75 L 476.980469 192.847656 L 499.003906 177.949219 L 522.3125 163.347656 L 545.796875 149.007812 L 569.457031 134.949219 L 592.777344 119.53125 L 568.777344 105.199219 L 545.15625 91.089844 L 523.261719 74.234375 L 498.703125 61.582031 L 476.101562 45.894531 L 503.59375 46.605469 L 530.925781 50.335938 L 558.449219 51.035156 L 585.820312 54.117188 L 612.746094 54.1875 L 602.925781 29.179688 L 594.273438 3.015625 L 583.753906 -22.410156 L 571.910156 -47.320312 L 562.820312 -72.964844 L 583.375 -55.171875 L 605.359375 -38.578125 L 626.296875 -20.726562 L 646.863281 -2.414062 L 668.359375 13.953125 L 674.226562 -12.402344 L 680.863281 -39.105469 L 689.972656 -65.171875 L 694.59375 -92.394531 Z M 702.65625 -118.339844 " fill-opacity="1" fill-rule="nonzero"/></g><g clip-path="url(#2a68070a01)"><path fill="#39a8e8" d="M 237.726562 40.648438 C 237.546875 40.6875 237.355469 40.710938 237.183594 40.761719 C 233.210938 42 228.859375 42.53125 224.796875 43.394531 C 216.097656 45.242188 207.398438 47.089844 198.699219 48.9375 C 178.605469 53.207031 158.515625 57.476562 138.421875 61.742188 C 158.75 74.363281 179.074219 86.980469 199.402344 99.601562 C 208.574219 105.296875 217.746094 110.988281 226.917969 116.683594 C 227.625 117.121094 228.003906 118.167969 227.5 118.910156 C 218.789062 131.726562 210.078125 144.542969 201.367188 157.363281 C 200.890625 158.0625 199.914062 158.449219 199.140625 157.945312 C 198.984375 157.847656 198.835938 157.730469 198.675781 157.644531 C 194.992188 155.703125 191.542969 153.011719 188.054688 150.746094 C 180.597656 145.902344 173.140625 141.058594 165.679688 136.214844 C 148.96875 125.359375 132.257812 114.5 115.546875 103.644531 C 122.191406 126.203125 128.832031 148.757812 135.476562 171.316406 C 138.527344 181.671875 141.578125 192.027344 144.628906 202.382812 C 144.871094 203.210938 144.332031 204.171875 143.492188 204.382812 C 128.457031 208.144531 113.421875 211.90625 98.386719 215.664062 C 97.535156 215.878906 96.621094 215.390625 96.382812 214.527344 C 96.335938 214.351562 96.300781 214.167969 96.238281 213.996094 C 94.835938 210.054688 94.007812 205.804688 92.910156 201.773438 C 90.574219 193.195312 88.234375 184.613281 85.898438 176.035156 C 80.304688 155.503906 74.714844 134.976562 69.121094 114.449219 C 57.5625 135.65625 46.007812 156.863281 34.449219 178.070312 C 29.285156 187.550781 24.121094 197.027344 18.957031 206.507812 C 18.539062 207.273438 17.464844 207.535156 16.726562 207.089844 C 3.4375 199.117188 -9.851562 191.148438 -23.144531 183.175781 C -23.90625 182.71875 -24.167969 181.71875 -23.726562 180.949219 C -23.636719 180.789062 -23.53125 180.632812 -23.453125 180.46875 C -21.648438 176.691406 -19.242188 173.101562 -17.164062 169.472656 C -12.75 161.753906 -8.335938 154.035156 -3.921875 146.3125 C 7.863281 125.699219 19.652344 105.085938 31.441406 84.46875 C 30.136719 84.746094 28.832031 85.023438 27.527344 85.300781 C 2.257812 90.667969 -23.011719 96.035156 -48.28125 101.40625 C -58.851562 103.648438 -69.417969 105.894531 -79.988281 108.140625 C -80.160156 108.175781 -80.308594 108.15625 -80.460938 108.144531 C -81.144531 108.203125 -81.816406 107.882812 -81.992188 107.003906 C -84.566406 93.980469 -87.136719 80.960938 -89.710938 67.9375 C -89.875 67.101562 -89.472656 66.144531 -88.574219 65.933594 C -88.394531 65.894531 -88.207031 65.867188 -88.035156 65.808594 C -84.074219 64.515625 -79.765625 63.875 -75.714844 62.925781 C -66.992188 60.886719 -58.269531 58.847656 -49.546875 56.804688 C -26.757812 51.472656 -3.972656 46.144531 18.8125 40.8125 C -2.808594 26.765625 -24.433594 12.71875 -46.058594 -1.328125 C -55.121094 -7.214844 -64.183594 -13.101562 -73.246094 -18.988281 C -73.410156 -19.09375 -73.515625 -19.226562 -73.625 -19.359375 C -74.101562 -19.8125 -74.308594 -20.496094 -73.828125 -21.214844 C -66.4375 -32.242188 -59.050781 -43.269531 -51.660156 -54.296875 C -51.179688 -55.011719 -50.214844 -55.363281 -49.433594 -54.878906 C -49.277344 -54.78125 -49.125 -54.671875 -48.964844 -54.585938 C -45.25 -52.695312 -41.75 -50.109375 -38.214844 -47.914062 C -30.605469 -43.191406 -22.992188 -38.464844 -15.382812 -33.738281 C 2.324219 -22.746094 20.03125 -11.753906 37.734375 -0.761719 C 31.667969 -23.035156 25.601562 -45.308594 19.535156 -67.578125 C 16.695312 -78.003906 13.855469 -88.429688 11.015625 -98.855469 C 10.90625 -99.253906 10.96875 -99.589844 11.09375 -99.882812 C 11.238281 -100.324219 11.558594 -100.707031 12.152344 -100.859375 C 25.007812 -104.164062 37.863281 -107.46875 50.71875 -110.773438 C 51.585938 -110.996094 52.46875 -110.492188 52.71875 -109.636719 C 52.773438 -109.460938 52.8125 -109.277344 52.875 -109.105469 C 54.335938 -105.1875 55.269531 -100.980469 56.449219 -96.972656 C 58.980469 -88.378906 61.511719 -79.785156 64.042969 -71.191406 C 70.4375 -49.488281 76.828125 -27.789062 83.222656 -6.085938 C 95.953125 -28.347656 108.679688 -50.609375 121.410156 -72.871094 C 126.773438 -82.253906 132.140625 -91.632812 137.503906 -101.015625 C 137.734375 -101.417969 138.058594 -101.628906 138.402344 -101.726562 C 138.429688 -101.738281 138.453125 -101.753906 138.484375 -101.761719 C 138.535156 -101.773438 138.585938 -101.773438 138.640625 -101.78125 C 138.980469 -101.847656 139.347656 -101.824219 139.730469 -101.597656 C 151.15625 -94.84375 162.585938 -88.09375 174.011719 -81.339844 C 174.789062 -80.878906 175.019531 -79.886719 174.597656 -79.113281 C 174.507812 -78.949219 174.410156 -78.792969 174.332031 -78.625 C 172.585938 -74.824219 170.277344 -71.1875 168.277344 -67.519531 C 163.992188 -59.652344 159.707031 -51.785156 155.417969 -43.917969 C 144.433594 -23.757812 133.445312 -3.597656 122.460938 16.5625 C 147.179688 10.78125 171.898438 4.996094 196.613281 -0.785156 C 207.125 -3.246094 217.636719 -5.703125 228.148438 -8.164062 C 228.949219 -8.347656 229.980469 -7.914062 230.148438 -7.027344 C 233.054688 8.199219 235.957031 23.421875 238.859375 38.644531 C 239.019531 39.46875 238.632812 40.457031 237.726562 40.648438 Z M 237.726562 40.648438 " fill-opacity="1" fill-rule="nonzero"/></g></svg>