<svg xmlns="http://www.w3.org/2000/svg" xmlns:xlink="http://www.w3.org/1999/xlink" width="1151" zoomAndPan="magnify" viewBox="0 0 863.25 449.999984" height="600" preserveAspectRatio="xMidYMid meet" version="1.0"><defs><clipPath id="1fdc19c7b8"><path d="M 0 0.195312 L 862.5 0.195312 L 862.5 449.804688 L 0 449.804688 Z M 0 0.195312 " clip-rule="nonzero"/></clipPath><clipPath id="65bd0d9dc5"><path d="M 564.214844 202.882812 L 681.863281 202.882812 L 681.863281 324.277344 L 564.214844 324.277344 Z M 564.214844 202.882812 " clip-rule="nonzero"/></clipPath><clipPath id="776de65511"><path d="M 368.851562 260.65625 L 532.210938 260.65625 L 532.210938 432.257812 L 368.851562 432.257812 Z M 368.851562 260.65625 " clip-rule="nonzero"/></clipPath><clipPath id="73c9e48435"><path d="M 176.363281 0.195312 L 292.511719 0.195312 L 292.511719 112.523438 L 176.363281 112.523438 Z M 176.363281 0.195312 " clip-rule="nonzero"/></clipPath></defs><g clip-path="url(#1fdc19c7b8)"><path fill="#ffffff" d="M 0 0.195312 L 862.5 0.195312 L 862.5 449.804688 L 0 449.804688 Z M 0 0.195312 " fill-opacity="1" fill-rule="nonzero"/><path fill="#38b6ff" d="M 0 0.195312 L 862.5 0.195312 L 862.5 449.804688 L 0 449.804688 Z M 0 0.195312 " fill-opacity="1" fill-rule="nonzero"/></g><g clip-path="url(#65bd0d9dc5)"><path fill="#39a8e8" d="M 622.445312 256.53125 L 625.867188 254.820312 L 629.160156 252.902344 L 632.550781 251.15625 L 635.929688 249.371094 L 639.515625 248.054688 L 643.09375 246.726562 L 646.765625 245.691406 L 650.515625 244.996094 L 654.246094 244.140625 L 658.066406 243.847656 L 661.855469 244.421875 L 665.628906 244.835938 L 669.28125 245.910156 L 672.738281 247.523438 L 675.6875 249.9375 L 678.457031 252.585938 L 679.960938 256.109375 L 681.320312 259.632812 L 681.621094 263.410156 L 681.234375 267.164062 L 680.261719 270.84375 L 678.292969 274.113281 L 675.9375 277.148438 L 672.773438 279.34375 L 669.28125 280.894531 L 665.632812 281.96875 L 661.886719 282.671875 L 658.070312 282.878906 L 654.242188 282.773438 L 650.453125 282.183594 L 646.796875 281.050781 L 643.136719 279.988281 L 639.5 278.832031 L 635.949219 277.421875 L 632.480469 275.824219 L 629.019531 274.199219 L 625.742188 272.222656 L 622.605469 270.035156 L 619.308594 268.113281 L 622.558594 270.128906 L 625.402344 272.726562 L 628.6875 274.707031 L 631.523438 277.273438 L 634.613281 279.539062 L 637.414062 282.148438 L 639.835938 285.117188 L 642.421875 287.925781 L 644.648438 291.027344 L 646.851562 294.160156 L 648.363281 297.675781 L 649.445312 301.316406 L 650.371094 305 L 650.195312 308.789062 L 649.382812 312.464844 L 647.785156 315.882812 L 645.390625 318.820312 L 642.308594 321.019531 L 638.925781 322.757812 L 635.1875 323.441406 L 631.398438 324.074219 L 627.574219 323.570312 L 624.035156 322.078125 L 620.75 320.195312 L 617.582031 318.085938 L 614.851562 315.394531 L 612.789062 312.160156 L 610.90625 308.816406 L 609.566406 305.214844 L 608.886719 301.4375 L 608.445312 297.648438 L 607.757812 293.878906 L 607.707031 290.054688 L 608.09375 286.25 L 608.347656 282.445312 L 608.660156 278.636719 L 609.179688 274.847656 L 610 271.109375 L 609.066406 274.871094 L 608.332031 278.695312 L 607.300781 282.449219 L 605.761719 286.027344 L 604.410156 289.671875 L 602.550781 293.089844 L 600.578125 296.433594 L 598.476562 299.714844 L 595.574219 302.316406 L 592.898438 305.171875 L 589.351562 306.8125 L 585.632812 307.78125 L 581.777344 308.398438 L 578.078125 307.136719 L 574.644531 305.4375 L 571.542969 303.171875 L 568.894531 300.355469 L 566.996094 296.992188 L 565.613281 293.40625 L 564.320312 289.714844 L 564.5 285.8125 L 565.191406 282.003906 L 566.535156 278.355469 L 568.769531 275.171875 L 571.648438 272.589844 L 574.65625 270.171875 L 578.070312 268.359375 L 581.542969 266.601562 L 585.273438 265.476562 L 589.042969 264.492188 L 592.941406 264.226562 L 596.769531 263.488281 L 600.667969 263.554688 L 604.546875 263.410156 L 600.664062 263.324219 L 596.792969 263.042969 L 592.898438 262.90625 L 589.109375 262 L 585.292969 261.289062 L 581.527344 260.285156 L 577.914062 258.816406 L 574.648438 256.679688 L 571.5625 254.351562 L 568.84375 251.605469 L 566.714844 248.386719 L 565.25 244.816406 L 564.234375 241.046875 L 564.535156 237.148438 L 565.398438 233.367188 L 566.757812 229.726562 L 569 226.5625 L 571.46875 223.589844 L 574.535156 221.222656 L 578.035156 219.589844 L 581.816406 218.957031 L 585.660156 218.84375 L 589.433594 219.8125 L 592.726562 221.890625 L 595.558594 224.511719 L 598.460938 227.117188 L 600.378906 230.511719 L 602.730469 233.632812 L 604.09375 237.292969 L 605.972656 240.71875 L 607.300781 244.378906 L 608.085938 248.207031 L 609.390625 251.875 L 610 255.71875 L 609.253906 251.96875 L 608.492188 248.214844 L 608.351562 244.378906 L 607.972656 240.585938 L 607.625 236.773438 L 608.0625 232.964844 L 608.230469 229.15625 L 608.691406 225.355469 L 610.007812 221.757812 L 611.1875 218.140625 L 612.679688 214.613281 L 614.910156 211.492188 L 617.460938 208.617188 L 620.5 206.257812 L 624.058594 204.824219 L 627.632812 203.554688 L 631.394531 202.882812 L 635.210938 203.164062 L 639 203.835938 L 642.265625 205.863281 L 645.492188 207.890625 L 647.824219 210.910156 L 649.476562 214.320312 L 650.648438 217.980469 L 650.316406 221.808594 L 649.445312 225.5 L 648.585938 229.238281 L 646.539062 232.480469 L 644.550781 235.722656 L 642.339844 238.828125 L 639.824219 241.691406 L 637.210938 244.472656 L 634.527344 247.191406 L 631.710938 249.785156 L 628.566406 251.96875 L 625.625 254.417969 L 622.382812 256.449219 L 619.222656 258.585938 Z M 622.445312 256.53125 " fill-opacity="1" fill-rule="nonzero"/></g><g clip-path="url(#776de65511)"><path fill="#fcde57" d="M 450.464844 260.816406 L 453.40625 270.152344 L 455 279.972656 L 457.816406 289.484375 L 460.445312 299.039062 L 462.824219 308.46875 L 470.480469 302.46875 L 478.195312 296.246094 L 485.957031 290.078125 L 493.207031 283.296875 L 501.042969 276.882812 L 497.332031 286.300781 L 494.070312 295.667969 L 490.242188 304.8125 L 486.570312 314.019531 L 482.425781 323.273438 L 492.503906 322.121094 L 502.410156 321.773438 L 512.324219 321.5 L 522.191406 320.507812 L 532.132812 319.960938 L 523.867188 325.519531 L 515.425781 330.714844 L 506.8125 335.640625 L 498.476562 341.003906 L 490.40625 346.496094 L 498.589844 351.808594 L 507.007812 357.035156 L 515.578125 362.027344 L 523.917969 367.382812 L 532.1875 373.046875 L 522.175781 372.621094 L 512.269531 372.253906 L 502.4375 370.71875 L 492.542969 370.164062 L 482.292969 369.621094 L 486.570312 378.964844 L 490.019531 388.257812 L 493.671875 397.46875 L 496.988281 406.816406 L 500.894531 415.914062 L 493.5625 409.257812 L 485.335938 403.65625 L 477.699219 397.335938 L 470.132812 390.933594 L 462.820312 384.53125 L 459.976562 393.832031 L 457.976562 403.546875 L 455.792969 413.222656 L 452.933594 422.722656 L 450.460938 432.210938 L 448.203125 422.667969 L 445.175781 413.214844 L 442.785156 403.597656 L 440.367188 393.984375 L 438.175781 384.316406 L 430.746094 390.886719 L 422.621094 396.609375 L 414.980469 402.925781 L 407.453125 409.378906 L 399.8125 416.210938 L 403.769531 406.761719 L 407.597656 397.621094 L 410.613281 388.15625 L 414.890625 379.191406 L 418.070312 370.039062 L 408.421875 370.765625 L 398.496094 370.828125 L 388.605469 371.507812 L 378.738281 372.523438 L 369.167969 372.917969 L 377.101562 367.550781 L 385.5 362.289062 L 393.960938 357.125 L 402.480469 352.058594 L 410.882812 346.507812 L 402.238281 341.34375 L 393.730469 336.261719 L 385.84375 330.191406 L 376.996094 325.632812 L 368.851562 319.980469 L 378.757812 320.234375 L 388.601562 321.582031 L 398.515625 321.832031 L 408.378906 322.941406 L 418.078125 322.96875 L 414.539062 313.960938 L 411.421875 304.535156 L 407.632812 295.375 L 403.367188 286.402344 L 400.089844 277.164062 L 407.496094 283.574219 L 415.417969 289.550781 L 422.957031 295.980469 L 430.367188 302.578125 L 438.109375 308.472656 L 440.222656 298.980469 L 442.613281 289.359375 L 445.894531 279.96875 L 447.5625 270.164062 Z M 450.464844 260.816406 " fill-opacity="1" fill-rule="nonzero"/></g><g clip-path="url(#73c9e48435)"><path fill="#39a8e8" d="M 292.015625 50.332031 C 291.953125 50.34375 291.886719 50.351562 291.824219 50.371094 C 290.421875 50.808594 288.882812 50.996094 287.449219 51.300781 C 284.375 51.953125 281.304688 52.605469 278.234375 53.257812 C 271.136719 54.765625 264.039062 56.273438 256.945312 57.78125 C 264.125 62.238281 271.300781 66.695312 278.480469 71.148438 C 281.71875 73.160156 284.960938 75.171875 288.199219 77.183594 C 288.449219 77.335938 288.582031 77.707031 288.40625 77.96875 C 285.328125 82.496094 282.25 87.023438 279.175781 91.550781 C 279.007812 91.796875 278.660156 91.933594 278.386719 91.757812 C 278.332031 91.722656 278.28125 91.679688 278.222656 91.648438 C 276.921875 90.964844 275.703125 90.011719 274.472656 89.214844 C 271.839844 87.503906 269.207031 85.792969 266.570312 84.082031 C 260.667969 80.246094 254.765625 76.414062 248.867188 72.578125 C 251.210938 80.546875 253.558594 88.511719 255.90625 96.476562 C 256.980469 100.132812 258.058594 103.792969 259.136719 107.449219 C 259.222656 107.742188 259.03125 108.082031 258.734375 108.15625 C 253.425781 109.484375 248.117188 110.8125 242.804688 112.140625 C 242.503906 112.214844 242.179688 112.042969 242.097656 111.738281 C 242.082031 111.675781 242.070312 111.609375 242.046875 111.550781 C 241.550781 110.160156 241.257812 108.65625 240.871094 107.234375 C 240.046875 104.203125 239.21875 101.175781 238.394531 98.144531 C 236.421875 90.894531 234.445312 83.644531 232.46875 76.394531 C 228.386719 83.882812 224.308594 91.375 220.226562 98.863281 C 218.402344 102.210938 216.578125 105.558594 214.753906 108.90625 C 214.605469 109.175781 214.226562 109.269531 213.964844 109.113281 C 209.273438 106.296875 204.578125 103.480469 199.886719 100.664062 C 199.617188 100.503906 199.523438 100.152344 199.679688 99.878906 C 199.710938 99.824219 199.75 99.769531 199.777344 99.710938 C 200.414062 98.375 201.261719 97.109375 201.996094 95.828125 C 203.554688 93.101562 205.113281 90.375 206.671875 87.648438 C 210.835938 80.367188 215 73.085938 219.164062 65.804688 C 218.703125 65.902344 218.242188 66 217.78125 66.101562 C 208.855469 67.996094 199.933594 69.890625 191.007812 71.789062 C 187.273438 72.582031 183.542969 73.375 179.808594 74.167969 C 179.75 74.179688 179.695312 74.171875 179.644531 74.167969 C 179.402344 74.1875 179.164062 74.074219 179.101562 73.765625 C 178.191406 69.164062 177.285156 64.566406 176.375 59.96875 C 176.316406 59.671875 176.460938 59.335938 176.777344 59.261719 C 176.839844 59.246094 176.90625 59.234375 176.96875 59.214844 C 178.367188 58.757812 179.886719 58.53125 181.316406 58.199219 C 184.398438 57.476562 187.480469 56.757812 190.558594 56.035156 C 198.609375 54.152344 206.65625 52.269531 214.703125 50.386719 C 207.066406 45.425781 199.429688 40.464844 191.792969 35.503906 C 188.589844 33.425781 185.390625 31.347656 182.191406 29.269531 C 182.132812 29.230469 182.09375 29.183594 182.058594 29.136719 C 181.890625 28.976562 181.816406 28.734375 181.984375 28.480469 C 184.59375 24.585938 187.203125 20.695312 189.8125 16.800781 C 189.984375 16.546875 190.324219 16.421875 190.601562 16.59375 C 190.65625 16.625 190.707031 16.667969 190.765625 16.695312 C 192.078125 17.363281 193.3125 18.277344 194.5625 19.050781 C 197.25 20.722656 199.9375 22.390625 202.625 24.058594 C 208.878906 27.941406 215.132812 31.824219 221.386719 35.703125 C 219.242188 27.839844 217.101562 19.972656 214.957031 12.109375 C 213.953125 8.425781 212.953125 4.742188 211.949219 1.0625 C 211.910156 0.921875 211.933594 0.804688 211.976562 0.699219 C 212.027344 0.542969 212.140625 0.40625 212.351562 0.355469 C 216.890625 -0.8125 221.429688 -1.980469 225.96875 -3.148438 C 226.277344 -3.226562 226.589844 -3.046875 226.675781 -2.746094 C 226.695312 -2.683594 226.710938 -2.621094 226.734375 -2.558594 C 227.25 -1.175781 227.578125 0.3125 227.996094 1.726562 C 228.890625 4.761719 229.78125 7.796875 230.675781 10.832031 C 232.933594 18.496094 235.191406 26.160156 237.449219 33.824219 C 241.945312 25.960938 246.441406 18.101562 250.9375 10.238281 C 252.832031 6.925781 254.726562 3.613281 256.621094 0.300781 C 256.703125 0.15625 256.816406 0.0820312 256.9375 0.046875 C 256.949219 0.0429688 256.957031 0.0390625 256.964844 0.0351562 C 256.984375 0.03125 257.003906 0.03125 257.023438 0.0273438 C 257.140625 0.00390625 257.269531 0.0117188 257.40625 0.09375 C 261.441406 2.476562 265.476562 4.863281 269.515625 7.25 C 269.789062 7.410156 269.871094 7.761719 269.71875 8.035156 C 269.6875 8.089844 269.652344 8.148438 269.625 8.207031 C 269.011719 9.550781 268.195312 10.832031 267.488281 12.128906 C 265.976562 14.90625 264.460938 17.6875 262.949219 20.464844 C 259.066406 27.585938 255.1875 34.703125 251.308594 41.824219 C 260.039062 39.78125 268.765625 37.738281 277.496094 35.695312 C 281.207031 34.828125 284.921875 33.960938 288.632812 33.089844 C 288.914062 33.027344 289.28125 33.179688 289.339844 33.492188 C 290.367188 38.871094 291.390625 44.246094 292.417969 49.621094 C 292.472656 49.914062 292.335938 50.261719 292.015625 50.332031 Z M 292.015625 50.332031 " fill-opacity="1" fill-rule="nonzero"/></g></svg>