<svg xmlns="http://www.w3.org/2000/svg" xmlns:xlink="http://www.w3.org/1999/xlink" width="1151" zoomAndPan="magnify" viewBox="0 0 863.25 449.999984" height="600" preserveAspectRatio="xMidYMid meet" version="1.0"><defs><clipPath id="6e38717803"><path d="M 490.675781 137.757812 L 571.230469 137.757812 L 571.230469 218.316406 L 490.675781 218.316406 Z M 490.675781 137.757812 " clip-rule="nonzero"/></clipPath><clipPath id="a27228d39e"><path d="M 530.953125 137.757812 C 508.707031 137.757812 490.675781 155.792969 490.675781 178.039062 C 490.675781 200.28125 508.707031 218.316406 530.953125 218.316406 C 553.199219 218.316406 571.230469 200.28125 571.230469 178.039062 C 571.230469 155.792969 553.199219 137.757812 530.953125 137.757812 Z M 530.953125 137.757812 " clip-rule="nonzero"/></clipPath><clipPath id="c452dd9975"><path d="M 0.675781 0.757812 L 81.230469 0.757812 L 81.230469 81.316406 L 0.675781 81.316406 Z M 0.675781 0.757812 " clip-rule="nonzero"/></clipPath><clipPath id="be8aad3c0f"><path d="M 40.953125 0.757812 C 18.707031 0.757812 0.675781 18.792969 0.675781 41.039062 C 0.675781 63.28125 18.707031 81.316406 40.953125 81.316406 C 63.199219 81.316406 81.230469 63.28125 81.230469 41.039062 C 81.230469 18.792969 63.199219 0.757812 40.953125 0.757812 Z M 40.953125 0.757812 " clip-rule="nonzero"/></clipPath><clipPath id="bdabf27ab8"><rect x="0" width="82" y="0" height="82"/></clipPath><clipPath id="ec81567c4d"><path d="M 304.21875 156.160156 L 477.335938 156.160156 L 477.335938 312.242188 L 304.21875 312.242188 Z M 304.21875 156.160156 " clip-rule="nonzero"/></clipPath><clipPath id="5c8ef219e0"><path d="M 406.960938 165.734375 L 474.691406 284.265625 C 477.996094 290.050781 477.972656 297.160156 474.628906 302.925781 C 471.28125 308.691406 465.121094 312.242188 458.453125 312.242188 L 323.492188 312.242188 C 316.824219 312.242188 310.664062 308.691406 307.320312 302.925781 C 303.972656 297.160156 303.949219 290.050781 307.257812 284.265625 L 374.984375 165.734375 C 378.265625 160 384.367188 156.457031 390.972656 156.457031 C 397.582031 156.457031 403.679688 160 406.960938 165.734375 Z M 406.960938 165.734375 " clip-rule="nonzero"/></clipPath><clipPath id="aec08c3ac4"><path d="M 0.21875 0.300781 L 173.335938 0.300781 L 173.335938 156.242188 L 0.21875 156.242188 Z M 0.21875 0.300781 " clip-rule="nonzero"/></clipPath><clipPath id="0304c13224"><path d="M 102.960938 9.734375 L 170.691406 128.265625 C 173.996094 134.050781 173.972656 141.160156 170.628906 146.925781 C 167.28125 152.691406 161.121094 156.242188 154.453125 156.242188 L 19.492188 156.242188 C 12.824219 156.242188 6.664062 152.691406 3.320312 146.925781 C -0.0273438 141.160156 -0.0507812 134.050781 3.257812 128.265625 L 70.984375 9.734375 C 74.265625 4 80.367188 0.457031 86.972656 0.457031 C 93.582031 0.457031 99.679688 4 102.960938 9.734375 Z M 102.960938 9.734375 " clip-rule="nonzero"/></clipPath><clipPath id="c722c0e5e2"><rect x="0" width="174" y="0" height="157"/></clipPath><clipPath id="f10e53c3e0"><path d="M 391 197 L 517.308594 197 L 517.308594 312.242188 L 391 312.242188 Z M 391 197 " clip-rule="nonzero"/></clipPath><clipPath id="ae13437074"><path d="M 470.171875 206.355469 L 514.695312 284.265625 C 518 290.050781 517.976562 297.160156 514.632812 302.925781 C 511.285156 308.691406 505.125 312.242188 498.457031 312.242188 L 409.914062 312.242188 C 403.25 312.242188 397.089844 308.691406 393.742188 302.925781 C 390.398438 297.160156 390.371094 290.050781 393.679688 284.265625 L 438.199219 206.355469 C 441.476562 200.617188 447.578125 197.078125 454.1875 197.078125 C 460.792969 197.078125 466.894531 200.617188 470.171875 206.355469 Z M 470.171875 206.355469 " clip-rule="nonzero"/></clipPath><clipPath id="6bcf4f524d"><path d="M 0 0.0625 L 126.308594 0.0625 L 126.308594 115.242188 L 0 115.242188 Z M 0 0.0625 " clip-rule="nonzero"/></clipPath><clipPath id="f685bba267"><path d="M 79.171875 9.355469 L 123.695312 87.265625 C 127 93.050781 126.976562 100.160156 123.632812 105.925781 C 120.285156 111.691406 114.125 115.242188 107.457031 115.242188 L 18.914062 115.242188 C 12.25 115.242188 6.089844 111.691406 2.742188 105.925781 C -0.601562 100.160156 -0.628906 93.050781 2.679688 87.265625 L 47.199219 9.355469 C 50.476562 3.617188 56.578125 0.078125 63.1875 0.078125 C 69.792969 0.078125 75.894531 3.617188 79.171875 9.355469 Z M 79.171875 9.355469 " clip-rule="nonzero"/></clipPath><clipPath id="53639196e3"><rect x="0" width="127" y="0" height="116"/></clipPath></defs><g clip-path="url(#6e38717803)"><g clip-path="url(#a27228d39e)"><g transform="matrix(1, 0, 0, 1, 490, 137)"><g clip-path="url(#bdabf27ab8)"><g clip-path="url(#c452dd9975)"><g clip-path="url(#be8aad3c0f)"><path fill="#292828" d="M 0.675781 0.757812 L 81.230469 0.757812 L 81.230469 81.316406 L 0.675781 81.316406 Z M 0.675781 0.757812 " fill-opacity="1" fill-rule="nonzero"/></g></g></g></g></g></g><g clip-path="url(#ec81567c4d)"><g clip-path="url(#5c8ef219e0)"><g transform="matrix(1, 0, 0, 1, 304, 156)"><g clip-path="url(#c722c0e5e2)"><g clip-path="url(#aec08c3ac4)"><g clip-path="url(#0304c13224)"><path fill="#292828" d="M -12.730469 -18.242188 L 186.96875 -18.242188 L 186.96875 156.242188 L -12.730469 156.242188 Z M -12.730469 -18.242188 " fill-opacity="1" fill-rule="nonzero"/></g></g></g></g></g></g><g clip-path="url(#f10e53c3e0)"><g clip-path="url(#ae13437074)"><g transform="matrix(1, 0, 0, 1, 391, 197)"><g clip-path="url(#53639196e3)"><g clip-path="url(#6bcf4f524d)"><g clip-path="url(#f685bba267)"><path fill="#292828" d="M -13.304688 -18.621094 L 139.902344 -18.621094 L 139.902344 115.242188 L -13.304688 115.242188 Z M -13.304688 -18.621094 " fill-opacity="1" fill-rule="nonzero"/></g></g></g></g></g></g></svg>